<?xml version="1.0" encoding="UTF-8"?>
<!DOCTYPE svg PUBLIC "-//W3C//DTD SVG 1.1//EN" "http://www.w3.org/Graphics/SVG/1.1/DTD/svg11.dtd">
<svg version="1.1" xmlns="http://www.w3.org/2000/svg" xmlns:xlink="http://www.w3.org/1999/xlink" x="0" y="0" width="1238" height="1128" viewBox="0, 0, 1238, 1128">
  <defs>
    <clipPath id="Clip_1">
      <path d="M0.06,0.11 L1237.2,0.11 L1237.2,1127.94 L0.06,1127.94 z"/>
    </clipPath>
  </defs>
  <g id="Layer_1">
    <g clip-path="url(#Clip_1)">
      <path d="M609.873,881.264 C608.98,890.539 607.935,899.801 607.212,909.089 C607.011,911.673 606.243,912.485 603.67,912.411 C597.678,912.24 591.677,912.29 585.681,912.394 C583.652,912.428 582.326,911.763 581.077,910.132 C576.73,904.453 572.214,898.904 567.504,892.98 C584.372,883.698 597.958,870.755 612.184,856.578 C611.341,865.605 610.627,873.436 609.873,881.264 z M535.885,912.351 C534.017,912.356 533.461,910.893 532.646,909.664 C529.258,904.555 525.852,899.46 521.69,893.216 C530.987,896.303 539.546,897.966 548.356,898.494 C551.075,898.657 552.355,901.8 554.168,903.683 C556.556,906.163 558.698,908.88 561.676,912.343 C552.376,912.343 544.131,912.333 535.885,912.351 z M471.397,912.397 C468.868,912.413 468.358,911.131 468.164,909.053 C466.509,891.348 464.929,873.641 464.993,855.568 C486.358,869.966 499.294,891.339 514.438,912.355 C499.275,912.355 485.336,912.308 471.397,912.397 z M449.095,912.362 C448.93,912.35 448.762,912.354 448.597,912.365 C438.603,913.04 438.642,913.044 439.861,903.007 C441.542,889.173 444.282,875.541 447.734,862.015 C448.982,877.958 449.61,893.878 451.45,909.702 C451.688,911.741 451.041,912.498 449.095,912.362 z M1236.68,454.234 C1236.22,450.628 1232.66,449.942 1229.29,449.698 C1223.15,449.253 1217.04,448.444 1211.07,446.871 C1184.95,439.994 1164.54,425.932 1153.35,400.508 C1146.04,383.898 1146.84,366.43 1148.42,348.944 C1150.49,326.239 1155.64,303.922 1157.18,281.158 C1161.35,219.794 1139.84,169.544 1090.77,132.136 C1056.16,105.745 1016.31,94.66 972.963,95.817 C970.385,95.886 968.164,95.376 965.862,94.179 C948.438,85.114 930.318,77.715 911.605,71.747 C873.052,59.45 833.462,52.738 793.186,49.765 C752.972,46.797 712.764,45.059 672.621,50.858 C628.135,57.284 587.107,72.495 550.238,98.529 C535.354,109.038 522.159,121.434 509.133,134.059 C507.427,134.135 506.509,135.369 505.601,136.546 C502.554,140.498 498.854,143.876 495.785,147.801 C494.255,149.337 493.017,151.116 491.689,152.822 C474.954,174.322 461.121,197.538 449.795,222.328 C434.77,255.212 424.512,289.538 417.657,324.959 C415,338.686 413.725,352.605 411.79,366.429 C410.551,374.183 408.96,381.918 410.287,389.841 C408.939,415.564 410.247,441.086 416.072,466.264 C416.49,468.07 416.536,469.773 416.104,471.629 C413.547,482.624 413.44,493.704 415.031,504.862 C418.275,527.623 434.772,543.7 456.821,544.687 C461.844,544.912 463.761,546.355 465.166,551.165 C485.481,620.715 527.493,671.408 595.176,699.419 C599.365,701.153 599.443,702.39 597.333,705.944 C582.343,731.194 563.425,753.208 542.531,773.679 C539.837,776.318 538.471,776.197 535.791,773.855 C518.366,758.627 500.844,743.507 483.194,728.541 C479.994,725.827 478.573,723.091 478.703,718.822 C478.817,715.079 477.847,711.231 476.917,707.54 C472.706,690.833 450.823,676.856 437.866,680.803 C434.458,681.841 433.997,679.448 433.16,677.321 C420.812,645.95 408.445,614.588 396.148,583.198 C394.069,577.89 391.495,572.911 387.865,568.504 C380.56,559.636 367.384,552.419 353.11,559.677 C350.903,560.8 348.496,561.536 346.165,562.409 C338.962,565.109 334.433,570.337 331.96,577.474 C328.511,587.428 329.787,597.138 333.554,606.712 C339.88,622.787 346.149,638.883 352.543,654.93 C353.433,657.163 353.701,658.541 351.382,660.285 C344.97,665.107 340.851,671.705 338.007,679.163 C333.658,690.563 332.536,702.427 332.903,714.483 C333.566,736.25 337.719,757.205 349.557,775.835 C361.101,794 383.542,801.304 403.828,794.037 C406.688,793.013 407.288,793.956 408.192,796.323 C411.924,806.094 415.851,815.791 419.772,825.488 C422.177,831.435 425.487,833.233 431.485,831.284 C434.077,830.442 434.961,831.052 435.9,833.306 C436.81,835.49 436.466,837.469 435.865,839.551 C429.393,861.973 425,884.823 422.339,907.983 C421.894,911.852 420.556,912.444 417.166,912.426 C393.84,912.3 370.514,912.334 347.188,912.371 C335.439,912.389 328.467,917.895 325.708,929.162 C323.012,940.176 327.476,951.51 336.708,956.144 C339.109,957.349 339.993,958.701 340.423,961.26 C343.818,981.427 350.325,1000.58 360.461,1018.35 C390.425,1070.88 436.071,1102.95 493.339,1119.85 C518.252,1127.21 543.703,1128.16 569.442,1127.98 C587.584,1127.86 605.223,1125.39 622.718,1121 C647.108,1114.88 669.711,1104.65 691.091,1091.56 C693.943,1091.03 696.379,1089.64 698.679,1087.94 C706.859,1081.93 714.888,1075.72 722.347,1068.82 C724.15,1067.15 725.833,1065.73 728.484,1067.02 C735.64,1070.51 743.324,1070.24 750.996,1070.16 C760.415,1070.06 768.599,1066.72 775.524,1060.52 C780.474,1056.09 785.295,1051.46 788.73,1045.64 C790.129,1043.26 792.077,1041.62 794.742,1040.68 C804.812,1037.09 814.283,1032.27 823.379,1026.66 C828.109,1023.75 828.397,1023.82 828.96,1029.14 C830.811,1046.65 832.903,1064.14 833.648,1081.75 C833.769,1084.6 833.851,1087.42 835.61,1089.86 C836.947,1095.76 840.119,1098.43 845.091,1097.85 C849.922,1097.28 852.588,1093.54 852.335,1087.69 C851.256,1062.73 848.088,1037.95 845.634,1013.11 C845.329,1010.03 846.078,1008.27 848.258,1006.33 C870.907,986.204 886.732,961.624 896.065,932.8 C907.619,897.121 905.859,861.298 897.303,825.424 C887.264,783.333 869.503,744.466 847.599,707.36 C844.114,701.457 844.061,701.482 850.188,698.918 C878.147,687.216 903.093,671.017 924.189,649.135 C951.1,621.221 968.641,587.995 979.168,550.936 C980.492,546.273 982.419,544.872 987.155,544.759 C1007.17,544.278 1022.08,532.759 1028.28,513.587 C1028.95,511.519 1029.57,509.435 1030.31,507.038 C1030.99,507.844 1031.34,508.194 1031.61,508.595 C1052.51,538.903 1082.3,546.963 1116.96,542.535 C1122.96,541.769 1124.91,539.403 1125.48,533.325 C1126.38,523.654 1125.66,514.028 1123.93,504.497 C1123.34,501.285 1123.72,500.449 1127.48,500.588 C1167.25,502.06 1202,488.107 1233.92,465.524 C1238.39,462.362 1237.16,458.045 1236.68,454.234" fill="#6E4100"/>
      <path d="M509.133,134.059 C505.111,138.677 501.089,143.296 497.067,147.914 C494.676,147.16 494.04,144.924 493.125,143.029 C473.52,102.447 441.886,73.84 403.03,52.404 C371.994,35.282 338.728,24.939 303.657,20.64 C249.185,13.962 196.224,20.008 145.61,41.842 C116.133,54.558 89.409,71.769 67.236,95.266 C42.912,121.043 25.901,150.815 20.285,186.259 C14.017,225.813 22.354,262.419 43.57,296.187 C63.571,328.024 91.305,351.38 123.95,369.423 C157.739,388.097 194.107,398.165 232.249,402.284 C239.496,403.066 246.808,404.063 254.163,403.578 C260.354,403.17 264.935,405.759 268.79,410.566 C276.366,420.012 286.004,427.191 295.832,434.104 C296.338,434.46 296.88,434.961 297.72,434.522 C296.391,426.984 296.144,419.517 298.545,411.986 C300.894,404.62 305.402,400.822 313.141,399.73 C328.174,397.608 342.914,394.02 357.344,389.238 C374.786,383.457 391.588,376.228 407.59,367.158 C409.214,366.237 410.805,364.512 413.038,365.854 C412.121,373.853 411.204,381.852 410.287,389.846 C409.903,385.865 407.794,387.55 405.936,388.533 C390.296,396.805 373.906,403.254 356.998,408.369 C344.928,412.021 332.702,415.102 320.202,416.958 C315.406,417.67 313.546,420.293 314.389,425.317 C315.777,433.594 320.364,439.911 326.588,445.251 C328.704,447.065 331.286,448.556 331.996,451.565 C333.472,457.821 330.187,461.797 323.636,462.005 C308.155,462.499 295.356,455.518 283.067,447.351 C273.356,440.897 264.655,433.198 256.97,424.397 C253.083,419.946 247.526,421.46 242.936,421.204 C197.756,418.681 155.222,406.921 115.401,385.52 C92.555,373.242 71.794,358.005 53.969,339.108 C27.125,310.65 8.654,277.667 2.301,238.69 C-3.064,205.782 0.999,173.848 14.005,143.118 C22.769,122.409 34.924,103.913 50.086,87.273 C83.757,50.321 125.53,26.857 173.018,12.8 C196.335,5.897 220.148,2.192 244.455,0.735 C294.567,-2.269 342.717,5.49 388.873,25.304 C420.881,39.045 449.465,57.908 473.555,83.161 C487.969,98.271 499.985,115.198 509.133,134.059" fill="#B9DEFE"/>
    </g>
    <path d="M691.091,1091.56 C702.41,1083.67 713.553,1075.56 723.419,1065.84 C724.65,1064.63 725.638,1064.04 727.662,1064.89 C751.61,1074.91 772.362,1066.99 785.044,1048.34 C788.632,1043.07 792.595,1039.57 798.816,1037.51 C808.597,1034.27 817.505,1028.92 826.189,1023.32 C827.553,1022.44 829.611,1019.98 830.012,1024.31 C832.034,1046.15 834.787,1067.92 835.61,1089.86 C791.073,1090.26 746.536,1090.65 702,1091.1 C698.367,1091.13 694.761,1092.13 691.091,1091.56" fill="#FFE371"/>
    <path d="M246.493,519.96 C246.311,524.571 244.721,527.858 239.694,529.048 C233.396,530.539 227.237,532.607 220.971,534.248 C218.409,534.919 217.271,536.154 216.74,538.885 C215.123,547.196 212.885,555.385 211.26,563.695 C210.233,568.945 206.454,570.212 202.209,570.618 C197.618,571.057 193.982,568.031 192.921,563.486 C191.034,555.397 188.962,547.339 187.475,539.176 C186.882,535.923 185.268,534.778 182.49,534.041 C176.39,532.422 170.37,530.486 164.24,528.995 C159.485,527.838 157.743,524.696 157.698,520.28 C157.652,515.824 159.44,512.742 164.182,511.55 C170.623,509.931 176.928,507.771 183.368,506.147 C185.882,505.513 186.806,504.324 187.309,501.862 C189.037,493.397 191.128,485.007 192.939,476.558 C194.034,471.447 197.789,469.957 202.165,470 C206.544,470.044 210.215,471.608 211.241,476.758 C212.734,484.253 214.75,491.648 216.093,499.167 C216.883,503.587 218.621,506.093 223.329,506.995 C229.018,508.086 234.498,510.224 240.142,511.607 C244.697,512.724 246.207,515.792 246.493,519.96" fill="#FFCF00"/>
    <path d="M337.02,824.371 C350.79,824.491 361.075,830.972 368.877,841.905 C377.281,853.683 382.354,867.025 386.626,880.679 C388.483,886.614 383.612,892.435 377.286,891.506 C359.682,888.918 342.097,885.535 326.078,877.604 C314.883,872.061 309.167,861.752 309.306,849.084 C309.463,834.707 321.468,824.296 337.02,824.371" fill="#6E4100"/>
    <path d="M959.922,555.878 C945.834,599.93 920.63,635.951 882.443,662.427 C851.75,683.707 817.202,695.085 780.635,700.785 C739.522,707.193 698.386,707.013 657.374,699.817 C613.61,692.139 573.632,676.075 540.49,645.533 C518.362,625.141 501.818,600.828 490.607,572.896 C492.441,571.419 494.111,572.575 495.704,573.333 C504.983,577.746 514.802,580.282 524.959,581.308 C533.227,582.143 541.508,580.948 548.72,576.935 C565.933,567.356 577.653,553.239 582.025,533.609 C584.049,524.521 581.386,516.123 578.412,507.769 C573.783,494.765 566.706,483.294 555.214,475.404 C534,460.837 510.193,464.681 491.37,480.994 C485.174,486.364 480.046,492.699 476.221,500.057 C475.587,501.276 475.098,504.782 472.183,501.94 C463.261,423.137 482.328,351.858 529.865,288.335 C534.635,281.96 540.428,276.353 545.716,270.363 C547.194,268.689 549.022,267.675 551.082,266.888 C580.918,255.479 611.808,248.491 643.495,244.869 C648.605,244.284 654.869,241.941 658.547,244.028 C662.172,246.085 663.143,252.759 665.362,257.367 C683.448,294.921 708.734,326.629 742.163,351.682 C747.77,355.884 753.844,359.342 760.566,361.488 C776.424,366.549 789.539,360.496 795.914,345.144 C800.328,334.513 801.362,323.251 801.795,311.911 C801.967,307.434 801.824,302.945 801.824,298.413 C803.809,298.23 803.995,299.898 804.664,300.83 C841.796,352.554 891.955,382.558 955.012,391.072 C964.838,392.399 964.759,392.383 967.077,402.517 C971.841,423.344 975.217,444.347 974.762,465.785 C974.391,483.271 973.02,500.684 969.741,517.901 C966.158,518.71 966.676,515.534 966.141,513.854 C962.774,503.274 957.92,493.555 950.898,484.875 C935.716,466.108 909.05,460.696 887.373,473.328 C866.512,485.484 855.652,504.411 853.59,527.983 C852.476,540.713 857.96,551.916 866.183,561.755 C879.367,577.531 912.168,586.444 931.381,578.269 C936.216,576.212 940.598,573.626 944.366,570.059 C948.353,566.285 952.247,562.407 955.973,558.366 C957.047,557.2 957.824,555.459 959.922,555.878" fill="#FEF8EA"/>
    <path d="M1086.65,229.812 C1072.8,234.058 1059.09,237.356 1045.19,239.923 C1036.02,241.618 1026.8,242.701 1017.4,242.171 C1010.22,241.767 1006.49,247.789 1009.32,254.811 C1022.28,286.971 1028.42,320.555 1029.84,355.034 C1030.87,379.906 1028.85,404.601 1023.67,429.031 C1021.83,428.943 1021.98,427.234 1021.51,426.183 C1004.01,386.699 980.802,351.022 950.69,319.959 C907.308,275.206 855.121,246.217 794.246,232.914 C752.549,223.802 710.317,223.437 667.984,225.835 C625.538,228.24 584.149,236.089 544.388,251.495 C503.912,267.178 467.95,289.66 438.846,322.326 C438.435,322.787 437.908,323.145 436.927,323.989 C437.12,317.693 438.794,312.326 440.092,306.934 C452.171,256.753 471.477,209.814 502.813,168.355 C544.292,113.477 599.092,80.542 666.808,68.788 C697.188,63.515 727.751,63.392 758.42,64.498 C800.444,66.013 842.054,70.549 882.888,80.944 C932.819,93.654 978.338,114.969 1016.92,149.818 C1036.04,167.09 1052.35,186.858 1068.28,206.989 C1074.25,214.538 1080.35,221.99 1086.65,229.812" fill="#FFE371"/>
    <path d="M413.038,365.854 C401.264,372.002 389.592,378.33 377.256,383.361 C357.179,391.549 336.47,397.461 315.081,400.851 C304.246,402.568 301.725,404.463 298.986,415.258 C297.402,421.502 297.62,427.041 299.835,436.821 C295.783,436.177 288.671,431.444 281.964,425.378 C276.291,420.248 270.456,415.315 265.778,409.191 C263.372,406.042 260.035,404.978 256.138,404.919 C225.036,404.449 194.755,399.207 165.33,389.095 C133.7,378.226 104.946,362.377 79.726,340.215 C50.443,314.482 29.582,283.493 20.8,245.218 C12.929,210.913 16.678,177.563 31.285,145.524 C41.633,122.83 56.271,103.156 74.473,86.206 C98.514,63.819 126.403,47.625 156.959,35.814 C178.597,27.451 201.012,22.046 223.937,19.167 C244.716,16.558 265.614,16.213 286.602,17.712 C312.77,19.581 338.242,24.469 362.94,33.128 C393.971,44.008 422.289,59.664 447.213,81.406 C468.619,100.079 485.279,122.125 497.067,147.915 C479.595,170.053 464.58,193.704 452.684,219.322 C431.837,264.215 419.024,311.279 414.18,360.525 C414,362.349 413.945,364.19 413.038,365.854" fill="#FEFEFE"/>
    <path d="M710.382,958.166 C709.204,961.161 708.144,963.412 707.424,965.767 C704.86,974.161 707.041,981.195 713.907,986.64 C715.289,987.736 716.278,988.174 715.078,990.427 C708.555,1002.67 709.904,1008 721.159,1016.27 C719.647,1018.39 717.921,1020.39 716.66,1022.65 C713.317,1028.66 714.26,1035.75 719.685,1039.1 C723.989,1041.76 722.047,1043.23 719.88,1045.53 C692.334,1074.74 658.982,1094.47 620.204,1104.18 C551.11,1121.49 486.308,1111.56 427.997,1069.54 C391.181,1043.01 366.917,1007.48 357.654,962.428 C356.915,958.837 357.336,957.922 361.148,957.925 C476.428,958.018 591.707,958.001 706.986,958.007 C707.946,958.007 708.906,958.094 710.382,958.166" fill="#FEFEFE"/>
    <path d="M807.069,712.839 C805.63,728.262 805.662,743.07 806.197,757.855 C807.473,793.104 808.491,828.368 812.689,863.452 C815.363,885.802 808.029,905.371 794.737,923.023 C794.461,923.39 793.943,923.575 793.289,924.011 C788.698,914.651 780.786,912.119 770.968,912.16 C723.987,912.36 677.005,912.251 630.023,912.249 C623.557,912.249 623.621,912.25 624.221,906.104 C627.681,870.66 631.387,835.238 634.401,799.756 C635.511,786.68 634.932,773.462 635.174,760.31 C635.441,745.83 635.836,731.352 636.015,716.871 C636.056,713.57 636.755,712.655 640.293,713.538 C648.242,715.523 648.338,715.294 648.152,723.569 C647.771,740.595 652.638,755.106 667.816,764.652 C669.717,765.847 669.722,767.593 669.851,769.415 C670.955,785.02 672.055,800.624 673.177,816.227 C673.296,817.885 673.505,819.539 673.745,821.184 C674.641,827.298 677.187,829.665 683.301,829.676 C709.124,829.722 734.947,829.726 760.771,829.673 C767.162,829.66 769.9,827.13 770.611,820.239 C772.506,801.866 774.287,783.48 775.928,765.082 C776.295,760.967 777.288,757.653 780.332,754.467 C788.665,745.744 792.663,734.881 794.088,723.019 C795.004,715.388 794.976,715.388 802.504,713.849 C803.798,713.584 805.084,713.279 807.069,712.839" fill="#FFE371"/>
    <path d="M1200.9,465.901 C1176.98,478.818 1151.67,485.76 1124.26,483.709 C1119.97,483.389 1117.3,481.903 1115.28,477.551 C1101.93,448.746 1078.87,430.201 1050.49,417.51 C1043.09,414.198 1043.31,414.326 1044.33,406.323 C1047.28,383.142 1047.49,359.925 1045.38,336.627 C1043.05,311 1038.04,285.979 1029.81,261.616 C1028.67,258.22 1030.87,258.985 1032.49,258.785 C1056.17,255.854 1079.16,249.918 1101.89,242.865 C1111.31,239.944 1113.28,233.722 1106.64,226.587 C1089.71,208.395 1075.54,187.943 1059.21,169.259 C1049.35,157.971 1039,147.18 1028.01,136.991 C1029.71,135.693 1031.17,136.75 1032.62,137.504 C1070.59,157.318 1097.6,186.999 1111.86,227.496 C1119.38,248.849 1122.46,270.979 1120.57,293.832 C1119.04,312.423 1116.25,330.855 1114.63,349.419 C1113.32,364.346 1111.96,379.355 1114.97,394.198 C1122.16,429.576 1144.95,450.195 1178.5,460.336 C1184.09,462.025 1189.83,463.044 1195.66,463.588 C1197.65,463.774 1199.69,463.919 1200.9,465.901" fill="#DBA76F"/>
    <path d="M800.424,1018.21 C803.521,1007.57 805.394,997.535 805.218,987.146 C805.005,974.539 801.396,963.238 793.319,953.533 C791.552,951.411 791.442,950.421 793.639,948.47 C825.02,920.609 835.082,885.067 829.254,844.693 C822.956,801.058 822.09,757.317 823.937,713.41 C823.966,712.745 824.011,712.079 824.085,711.417 C824.269,709.774 824.229,708.051 826.438,707.561 C828.653,707.069 828.837,709.045 829.524,710.122 C837.304,722.325 844.282,734.992 850.658,747.971 C865.206,777.586 877.106,808.158 883.482,840.679 C892.291,885.619 887.128,928.062 860.938,966.723 C846.452,988.107 821.752,1009.23 800.424,1018.21" fill="#FEFEFE"/>
    <path d="M619.493,755.631 C618.075,778.924 618.311,802.249 615.172,825.416 C614.95,827.052 614.961,828.618 613.701,830.008 C599.154,846.065 584.447,861.952 566.25,874.061 C556.073,880.834 555.994,880.79 547.05,872.593 C526.241,853.521 503.645,836.843 479.534,822.205 C477.594,821.027 476.149,819.717 475.335,817.558 C474.574,815.541 474.593,814.545 476.972,813.452 C482.994,810.685 484.29,807.117 481.873,800.908 C476.088,786.048 470.254,771.206 464.259,756.43 C463.038,753.419 462.5,751.181 466.14,749.72 C467.031,749.362 467.679,748.445 468.526,747.927 C470.711,746.59 471.406,742.577 474.053,743.131 C476.347,743.612 478.19,746.294 480.207,748.031 C497.491,762.917 514.751,777.829 532.058,792.688 C537.804,797.621 541.345,797.593 546.836,792.536 C573.185,768.274 596.591,741.597 614.216,710.188 C614.94,708.897 615.17,706.862 617.712,707.634 C620.127,708.367 619.46,710.185 619.465,711.694 C619.512,726.34 619.493,740.986 619.493,755.631" fill="#FEFEFE"/>
    <path d="M959.922,555.878 C952.958,563.183 946.822,571.45 937.849,576.515 C928.514,581.784 918.483,583.86 907.681,582.319 C896.565,580.734 885.836,578.141 876.289,572.002 C862.123,562.891 854.023,549.674 852.263,533.128 C851.141,522.576 854.296,512.422 858.869,502.852 C867.206,485.403 879.932,472.63 898.809,467.179 C920.258,460.986 942.056,469.35 955.053,487.991 C960.819,496.262 964.951,505.267 967.779,514.903 C968.139,516.132 967.88,517.686 969.741,517.901 C967.351,530.788 964.609,543.584 959.922,555.878" fill="#FFD5BA"/>
    <path d="M472.183,501.94 C475.183,502.895 474.783,500 475.492,498.75 C483.841,484.015 495.483,473.396 511.735,467.729 C532.115,460.623 554.513,468.612 567.445,485.045 C576.46,496.5 582.44,509.565 583.802,524.068 C585.152,538.445 578.623,550.488 569.752,561.336 C558.66,574.898 544.927,583.503 526.85,582.74 C516.354,582.296 506.23,579.548 496.606,575.177 C494.66,574.293 492.916,572.839 490.607,572.896 C480.902,550.169 475.167,526.412 472.183,501.94" fill="#FFD5BA"/>
    <path d="M1200.9,465.901 C1188.69,464.286 1176.59,462.32 1165.22,457.195 C1130.9,441.726 1112.84,415.374 1111.98,377.596 C1111.54,358.748 1113.98,340.093 1116.47,321.473 C1120.35,292.426 1121.65,263.541 1112.92,235.013 C1100.33,193.891 1074.91,163.151 1037.74,141.908 C1034.6,140.111 1031.6,137.93 1028.01,136.99 C1018.75,129.208 1009.62,121.26 998.657,114.067 C1004.5,113.524 1009.38,114.884 1014.18,115.968 C1069.39,128.449 1110.01,158.931 1131.36,212.394 C1141.45,237.664 1142.95,264.074 1139.47,290.928 C1136.11,316.793 1131.03,342.42 1130.66,368.683 C1130.03,414.162 1158.94,448.163 1199.19,460.967 C1201.35,461.656 1203.52,462.35 1205.9,463.112 C1204.26,464.588 1202.67,465.402 1200.9,465.901" fill="#FEFEFE"/>
    <path d="M796.197,250.573 C872.701,269.242 930.244,312.177 974.81,376.177 C939.128,373.86 906.854,365.014 877.483,346.825 C840.422,323.874 813.895,291.88 796.197,250.573" fill="#DBA76F"/>
    <path d="M677.596,242.26 C696.252,240.493 714.822,241.255 733.386,242.029 C748.001,242.638 762.525,244.144 776.947,246.67 C779.822,247.174 781.411,247.362 780.279,251.146 C779.13,254.985 780.992,258.995 781.519,262.927 C784.503,285.204 787.19,307.494 783.006,329.909 C779.777,347.211 772.912,350.565 757.816,341.732 C743.91,333.595 732.461,322.356 721.571,310.646 C704.228,291.997 690.172,271.082 679.576,247.885 C678.956,246.526 678.366,245.151 677.82,243.76 C677.65,243.326 677.673,242.816 677.596,242.26" fill="#DBA76F"/>
    <path d="M560.598,928.961 C630.911,928.961 701.225,928.967 771.538,928.94 C774.629,928.939 777.611,928.672 778.558,932.713 C779.12,935.116 779.38,937.581 777.572,939.288 C775.867,940.898 774.212,938.817 772.655,938.156 C757.874,931.883 743.307,931.158 729.102,939.734 C726.858,941.089 724.568,941.561 721.994,941.561 C597.696,941.532 473.397,941.538 349.099,941.528 C343.101,941.527 340.987,938.966 342.031,933.17 C342.499,930.572 343.751,928.881 346.658,928.961 C347.99,928.998 349.324,928.962 350.657,928.962 C420.637,928.961 490.617,928.961 560.598,928.961" fill="#FF7063"/>
    <path d="M349.53,713.297 C349.615,702.982 350.435,694.106 353.567,685.523 C356.946,676.262 363.107,670.513 373.041,669.156 C383.225,667.764 393.285,668.052 403.104,671.448 C404.201,671.828 405.29,672.249 406.342,672.738 C410.555,674.697 414.65,677.407 415.148,682.144 C415.617,686.598 411.232,688.725 408.014,690.996 C401.999,695.24 395.253,698.113 388.503,700.926 C384.216,702.713 381.496,705.503 382.095,710.404 C382.698,715.33 386.051,717.271 390.644,717.958 C396.231,718.793 401.779,719.899 407.336,720.934 C410.923,721.603 411.721,723.798 410.872,727.152 C409.742,731.62 406.97,734.414 402.689,735.74 C398.725,736.968 394.705,738.018 390.71,739.146 C386.729,740.271 383.72,742.463 383.257,746.853 C382.798,751.215 385.112,753.998 388.896,755.908 C394.24,758.605 399.587,761.35 404.083,765.393 C408.103,769.007 408.092,770.512 404.161,774.315 C398.036,780.24 390.583,780.839 382.741,779.361 C372.504,777.433 365.516,771.403 360.912,762.141 C353.047,746.322 350.016,729.468 349.53,713.297" fill="#FEF8EA"/>
    <path d="M1099.49,527.03 C1064.7,526.157 1041.81,506.408 1033.98,470.678 C1032.81,465.351 1032.75,460.372 1034.52,455.059 C1036.78,448.302 1038.2,441.256 1039.76,434.286 C1040.27,431.996 1040.98,431.647 1043.08,432.566 C1076.16,447.047 1105.89,474.383 1108.72,518.072 C1109.4,528.458 1110.65,526.622 1099.49,527.03" fill="#FFE371"/>
    <path d="M735.857,1026.56 C739.243,1023.63 743.041,1021.64 746.993,1019.99 C751.222,1018.23 753.526,1015.21 752.834,1010.69 C752.148,1006.21 749.236,1003.9 744.547,1003.56 C740.245,1003.25 735.974,1002.47 731.707,1001.79 C730.782,1001.64 729.404,1001.2 729.165,1000.55 C728.704,999.301 730.018,998.526 730.959,997.918 C734.862,995.395 738.715,992.86 743.65,992.63 C748.177,992.419 752.512,991.154 756.4,988.75 C760.01,986.517 761.866,983.254 760.633,979.012 C759.351,974.601 756.032,972.482 751.521,972.909 C748.069,973.236 744.543,973.788 741.284,974.916 C736.034,976.734 731.159,975.622 726.17,974.143 C723.469,973.342 722.902,972.004 723.964,969.354 C730.001,954.285 747.112,946.571 762.37,952.16 C780.666,958.86 789.71,972.388 788.378,992.339 C787.173,1010.39 780.496,1026.58 769.617,1040.97 C762.408,1050.5 752.667,1053.9 740.957,1051.84 C740.002,1051.68 738.737,1051.92 738.273,1050.9 C737.621,1049.47 739.093,1048.86 739.884,1048.2 C741.794,1046.61 743.799,1045.1 745.88,1043.74 C749.372,1041.44 750.708,1038.21 749.804,1034.28 C748.925,1030.46 746.079,1028.57 742.299,1027.94 C740.223,1027.59 737.955,1028.13 735.857,1026.56" fill="#FEF8EA"/>
    <path d="M457.987,327.885 C457.865,326.835 458.133,325.97 458.933,325.198 C473.919,310.746 490.078,297.845 509.555,286.821 C502.566,296.944 496.716,306.094 491.493,315.633 C474.894,345.946 464.374,378.358 458.034,412.215 C456.293,421.514 454.506,430.817 453.915,440.284 C453.762,442.722 452.851,443.998 450.252,443.783 C446.411,443.465 442.647,444.185 438.878,444.772 C436.475,443.543 436.676,441.22 436.622,439.104 C435.693,402.704 441.582,367.475 454.811,333.51 C455.604,331.473 456.585,329.566 457.987,327.885" fill="#DBA76F"/>
    <path d="M758.842,767.574 C757.434,782.432 756.095,796.303 754.831,810.181 C754.637,812.312 753.662,812.893 751.618,812.887 C731.981,812.825 712.344,812.821 692.707,812.894 C690.642,812.901 689.814,812.37 689.666,810.214 C688.838,798.109 687.891,786.013 686.956,773.916 C686.818,772.124 687.018,771.04 689.327,771.536 C698.787,773.567 706.948,769.994 714.757,765.291 C717.286,763.767 719.635,763.541 722.193,764.992 C733.708,771.522 745.742,772.355 758.842,767.574" fill="#FEFEFE"/>
    <path d="M405.853,654.459 C394.332,651.671 383.436,650.903 372.436,652.418 C370.415,652.697 369.455,652.11 368.715,650.201 C361.862,632.535 354.901,614.912 348.019,597.257 C346.657,593.763 346.646,590.06 347.04,586.403 C347.496,582.165 349.18,578.739 353.749,577.481 C355.184,577.087 356.594,576.504 357.915,575.815 C367.042,571.055 370.885,574.286 376.791,581.772 C377.803,583.055 378.538,584.615 379.147,586.149 C387.79,607.937 396.392,629.742 404.991,651.547 C405.285,652.293 405.452,653.089 405.853,654.459" fill="#BFBFBF"/>
    <path d="M412.279,750.1 C416.126,748.11 418.578,744.286 421.585,743.667 C423.577,743.256 426.444,747.854 429.14,749.923 C433.029,752.907 437.457,754.878 442.418,755.078 C444.916,755.178 446.206,756.037 447.128,758.451 C452.041,771.326 457.028,784.177 462.276,796.918 C463.58,800.083 462.877,801.096 459.875,802.195 C451.928,805.106 444.06,808.253 436.278,811.58 C433.326,812.842 432.234,811.97 431.263,809.237 C429.265,803.609 427.11,798.028 424.788,792.526 C422.216,786.434 419.81,780.794 423.312,773.835 C425.811,768.868 423.49,763.417 420.51,758.76 C418.429,755.507 415.582,752.941 412.279,750.1" fill="#BFBFBF"/>
    <path d="M1014.89,491.286 C1014.2,501.998 1013.44,512.989 1004.48,521.214 C999.863,525.457 994.273,527.269 988.194,527.961 C986.015,528.209 984.889,528.115 985.483,525.142 C989.505,505.006 991.267,484.623 991.432,464.106 C991.455,461.295 992.315,460.406 995.131,460.354 C1003.04,460.21 1008.03,463.143 1011.3,470.428 C1014.23,476.956 1014.58,483.942 1014.89,491.286" fill="#FEF8EA"/>
    <path d="M457.987,327.885 C454.734,337.792 451.17,347.61 448.287,357.624 C440.51,384.638 437.208,412.238 438.344,440.344 C438.403,441.825 438.695,443.296 438.878,444.772 C436.056,446.119 433.233,447.467 430.06,448.981 C428.257,442.375 427.827,435.754 427.308,429.216 C425.632,408.111 426.605,387.095 430.274,366.223 C430.825,363.09 431.961,360.248 433.626,357.494 C439.581,347.648 446.692,338.702 454.397,330.203 C455.356,329.146 456.174,327.695 457.987,327.885" fill="#FEFEFE"/>
    <path d="M430.883,490.844 C430.769,483.471 431.441,476.723 434.188,470.348 C437.044,463.718 442.081,460.39 449.378,460.376 C451.838,460.371 452.916,460.954 452.918,463.704 C452.93,484.338 454.751,504.813 458.88,525.047 C459.568,528.42 457.705,528.157 455.576,527.806 C444.193,525.932 436.608,519.579 433.138,508.534 C431.281,502.623 430.668,496.52 430.883,490.844" fill="#FEF8EA"/>
    <path d="M432.011,718.18 C431.957,711.546 433.031,705.904 436.432,700.901 C439.061,697.035 442.477,696.129 446.836,697.982 C459.058,703.179 465.087,716.638 460.939,729.322 C458.793,735.883 453.767,738.088 447.616,738.638 C441.851,739.154 437.706,736.545 435.08,731.443 C432.825,727.061 431.827,722.403 432.011,718.18" fill="#FEF8EA"/>
    <path d="M702.169,752.284 C700.88,753.888 699.33,754.544 697.756,754.892 C683.719,758 668.486,747.782 665.635,733.464 C664.748,729.013 663.558,723.754 665.586,720.286 C667.992,716.167 673.237,720.143 677.214,719.738 C682.609,719.188 684.859,721.726 686.459,726.804 C689.516,736.504 694.76,745.151 702.169,752.284" fill="#FEFEFE"/>
    <path d="M1011.75,447.011 C1005.66,444.239 1000.15,443.406 994.487,443.799 C992.11,443.964 990.924,443.335 990.625,440.678 C988.915,425.519 986.234,410.519 982.895,395.635 C982.626,394.436 981.732,392.843 983.6,392.235 C985.393,391.652 985.686,393.484 986.302,394.519 C996.083,410.941 1004.47,428.039 1011.75,447.011" fill="#DBA76E"/>
    <path d="M740.671,753.787 C750.021,745.066 754.901,734.707 758.111,723.428 C758.643,721.558 759.395,720.221 761.69,720.065 C765.988,719.771 770.285,719.323 774.55,718.714 C777.386,718.31 777.779,719.123 777.377,721.89 C774.504,741.665 762.003,752.914 740.671,753.787" fill="#FEFEFE"/>
    <path d="M702.515,722.037 C715.511,722.037 727.901,722.037 740.933,722.037 C738.38,729.325 735.485,736.177 729.23,740.994 C725.169,744.121 720.278,744.177 715.777,741.228 C708.894,736.719 705.788,729.625 702.515,722.037" fill="#FEF8EA"/>
    <path d="M522.659,874.578 C508.934,868.022 495.38,861.261 486.974,847.652 C499.778,855.408 511.654,864.418 522.659,874.578" fill="#FCFBFA"/>
    <path d="M337.023,840.928 C345.553,841.094 351.064,846.272 355.77,852.491 C359.387,857.271 361.558,862.907 364.214,868.247 C364.655,869.134 365.291,870.12 364.67,871.048 C363.88,872.23 362.626,871.787 361.504,871.512 C353.308,869.506 345.163,867.322 337.239,864.394 C333.201,862.901 330.082,860.241 327.935,856.533 C323.226,848.406 327.631,840.884 337.023,840.928" fill="#9D6F36"/>
    <path d="M819.431,478.845 C819.67,472.119 820.458,465.494 823.767,459.553 C825.205,456.971 824.812,455.205 823.315,452.859 C820.017,447.693 818.836,441.845 818.808,435.738 C818.789,431.74 820.699,429.258 824.66,429.159 C828.343,429.067 830.382,431.381 830.815,435.037 C831.069,437.177 831.125,439.359 831.589,441.452 C832.434,445.27 833.207,448.712 838.945,447.3 C842.243,446.489 845.59,448.876 848.327,451.196 C861.277,462.173 863.632,484.015 853.295,497.348 C844.763,508.352 830.768,507.516 823.544,495.569 C820.427,490.414 819.703,484.674 819.431,478.845" fill="#6E4100"/>
    <path d="M624.106,478.182 C623.838,486.559 620.995,493.703 615.409,499.583 C606.661,508.792 592.879,506.321 586.958,494.262 C581.558,483.264 582.602,471.934 587.153,460.94 C588.516,457.648 589.195,455.301 586.942,451.984 C583.612,447.08 582.765,441.212 582.856,435.286 C582.914,431.48 584.972,429.284 588.643,429.149 C592.087,429.022 594.198,431.109 594.776,434.497 C595.165,436.782 595.102,439.156 595.611,441.406 C596.461,445.161 597.131,448.502 602.927,447.342 C607.19,446.488 611.13,449.55 614.085,452.925 C620.461,460.207 623.552,468.802 624.106,478.182" fill="#6E4100"/>
    <path d="M722.491,626.783 C713.784,626.32 705.68,623.487 697.944,619.497 C687.211,613.961 677.655,606.845 669.561,597.841 C665.865,593.729 665.575,590.03 668.65,587.438 C671.582,584.966 674.783,585.78 678.448,589.688 C689.102,601.05 701.56,609.613 716.708,613.847 C723.806,615.831 730.511,614.272 737,611.222 C747.085,606.483 755.414,599.416 763.17,591.578 C764.924,589.805 766.583,587.889 768.55,586.388 C771.15,584.403 773.921,584.762 776.217,587.029 C778.55,589.333 778.958,592.341 776.795,594.684 C764.425,608.085 751.274,620.473 732.943,625.374 C730.865,625.93 728.702,626.191 726.566,626.494 C725.254,626.681 723.917,626.688 722.491,626.783" fill="#6E4100"/>
    <path d="M625.157,295.353 C625.136,298.761 623.906,300.931 621.279,301.761 C618.397,302.672 615.771,302.125 613.833,299.352 C607.948,290.932 599.949,289.557 591.345,295.359 C589.345,296.707 587.936,298.406 587.292,300.819 C586.273,304.634 583.338,305.695 579.909,304.907 C576.214,304.058 575.007,301.191 575.54,297.631 C576.046,294.251 577.638,291.357 579.958,288.854 C587.771,280.42 603.227,277.188 613.645,281.91 C619.763,284.683 623.674,289.351 625.157,295.353" fill="#6E4100"/>
    <path d="M732.984,490.224 C732.922,492.185 731.392,494.802 728.204,496.192 C724.902,497.631 721.472,497.508 719.063,494.703 C716.495,491.712 714.147,488.401 712.389,484.886 C710.824,481.759 711.401,478.318 714.067,475.731 C716.656,473.219 719.761,472.471 723.213,473.899 C726.833,475.397 733.024,484.786 732.984,490.224" fill="#6E4100"/>
    <path d="M413.249,160 C412.547,200.631 399.054,237.144 377.187,270.876 C356.501,302.787 329.731,328.644 298.109,349.621 C295.121,351.602 292.101,352.185 288.666,351.792 C231.551,345.268 180.506,324.755 137.915,285.451 C115.437,264.708 97.899,240.49 89.616,210.472 C76.121,161.56 103.752,116.519 153.215,107.503 C174.817,103.565 195.155,108.928 214.584,118.326 C222.682,122.242 230.453,126.771 237.636,132.177 C240.403,134.259 241.424,133.975 242.967,130.933 C251.249,114.606 261.907,100.08 275.684,87.855 C309.739,57.634 354.816,62.903 381.139,83.071 C398.273,96.199 406.809,114.5 410.96,135.154 C412.604,143.333 413.288,151.63 413.249,160" fill="#6E4100"/>
    <path d="M396.131,160.6 C396.151,192.35 386.09,221.225 370.898,248.642 C359.37,269.447 344.803,287.934 327.81,304.477 C318.291,313.745 307.789,321.897 297.22,329.973 C291.883,334.051 286.637,334.995 280.177,333.956 C235.525,326.777 194.802,310.689 159.452,281.923 C139.168,265.416 122.596,245.992 111.695,222.092 C103.413,203.933 99.682,185.168 106.056,165.505 C110.814,150.828 121.042,140.608 133.728,132.656 C154.768,119.466 176.596,121.17 198.677,129.755 C213.406,135.482 226.302,144.195 238.57,153.99 C244.417,158.658 249.525,157.289 252.338,150.466 C259.189,133.856 268.467,118.704 280.947,105.818 C305.858,80.095 340.266,76.379 368.567,94.91 C383.176,104.476 390.453,119.493 394.031,136.324 C395.731,144.321 396.476,152.402 396.131,160.6" fill="#9D6F36"/>
    <path d="M332.018,209.355 C338.703,212.223 340.733,211.67 343.705,206.396 C345.816,202.65 348.7,200.952 352.756,203.04 C356.621,205.031 356.711,208.474 355.377,212.074 C352.656,219.42 345.998,223.947 338.025,223.997 C327.942,224.06 319.206,219.052 316.273,211.027 C312.62,201.032 313.857,191.296 319.449,182.367 C324.407,174.45 334.314,172.557 341.144,177.724 C347.822,182.776 348.637,193.334 342.918,200.543 C340.096,204.1 336.336,206.544 332.018,209.355" fill="#FF7164"/>
    <path d="M196.497,268.99 C191.265,269.041 188.586,267.873 186.941,264.256 C179.657,248.249 175.503,231.333 172.188,214.178 C171.595,211.111 171.331,207.689 174.416,205.489 C176.614,203.923 179.094,203.925 181.484,205.217 C184.18,206.674 184.552,209.402 185.024,212.021 C187.416,225.299 191.109,238.215 195.488,250.966 C196.753,254.648 198.324,255.683 202.044,254.023 C207.366,251.648 212.728,249.434 217.633,246.21 C221.325,243.783 225.752,244.342 227.478,247.153 C229.337,250.181 228.187,254.84 224.714,257.082 C215.561,262.991 205.83,267.534 196.497,268.99" fill="#FF7164"/>
    <path d="M263.091,236.201 C262.776,241.051 261.354,246.632 256.485,250.607 C251.796,254.437 246.534,254.822 241.013,252.458 C234.357,249.607 230.258,244.516 229.188,237.493 C228.361,232.066 228.553,226.476 231.449,221.47 C234.3,216.544 238.557,213.224 244.317,213.351 C251.255,213.503 256.614,217.036 260.132,223.1 C262.27,226.785 263.097,230.824 263.091,236.201" fill="#FF7164"/>
    <path d="M293.942,204.359 C293.942,203.195 293.903,202.03 293.949,200.869 C294.094,197.19 296.499,195.412 299.71,195.146 C302.741,194.894 305.309,196.381 306.056,199.61 C307.748,206.918 305.975,214.097 304.739,221.232 C303.893,226.118 302.422,230.901 301.123,235.702 C299.797,240.601 296.263,242.398 291.601,240.226 C280.859,235.221 272.208,227.463 264.548,218.605 C262.078,215.75 262.297,212.201 265.197,209.636 C268.279,206.91 271.92,207.201 274.543,210.231 C278.152,214.399 282.256,217.989 286.355,221.596 C289.977,224.784 290.969,224.421 291.864,219.605 C292.801,214.562 293.955,209.535 293.942,204.359" fill="#FF7164"/>
    <path d="M289.338,106.941 C295.687,106.894 300.367,111.556 300.345,117.905 C300.324,124.166 295.202,129.324 288.958,129.372 C282.661,129.421 277.879,124.659 277.922,118.383 C277.965,112.121 283.088,106.986 289.338,106.941" fill="#FEFEFE"/>
    <path d="M378.041,224.189 C378.099,230.596 373.49,235.401 367.226,235.463 C361.072,235.524 356.022,230.53 356.053,224.413 C356.083,218.532 360.928,213.553 366.784,213.386 C373.077,213.207 377.985,217.916 378.041,224.189" fill="#FEFEFD"/>
    <path d="M370.042,144.438 C370.04,138.187 374.972,133.277 381.112,133.418 C387.255,133.559 392.165,138.662 392.017,144.753 C391.873,150.706 387.01,155.462 381.055,155.474 C374.691,155.486 370.044,150.829 370.042,144.438" fill="#FEFEFE"/>
    <path d="M374.042,108.434 C374.045,114.74 369.372,119.471 363.135,119.478 C356.974,119.484 352.08,114.64 352.046,108.503 C352.013,102.348 356.87,97.452 363.022,97.439 C369.187,97.427 374.038,102.267 374.042,108.434" fill="#FEFEFD"/>
    <path d="M379.487,174.163 C385.425,174.124 390.533,179.244 390.565,185.269 C390.597,191.4 385.705,196.398 379.62,196.45 C373.559,196.502 368.517,191.498 368.514,185.427 C368.511,179.407 373.581,174.203 379.487,174.163" fill="#FEFEFE"/>
    <path d="M123.657,203.386 C129.727,203.254 134.854,208.25 134.904,214.344 C134.954,220.41 129.902,225.451 123.775,225.448 C117.806,225.446 113.075,220.755 112.921,214.685 C112.759,208.334 117.331,203.523 123.657,203.386" fill="#FEFEFD"/>
    <path d="M129.229,174.443 C129.15,180.782 124.407,185.49 118.18,185.411 C112.198,185.336 107.095,180.081 107.248,174.156 C107.402,168.197 112.671,163.022 118.49,163.114 C124.574,163.21 129.308,168.203 129.229,174.443" fill="#FEFEFE"/>
    <path d="M300.05,318.076 C300.014,324.263 295.081,329.015 288.802,328.911 C282.741,328.812 278.085,324.13 278.055,318.108 C278.025,311.861 282.866,306.938 289.055,306.922 C295.227,306.907 300.087,311.837 300.05,318.076" fill="#FEFEFD"/>
    <path d="M249.509,301.755 C255.874,301.799 260.569,306.48 260.486,312.697 C260.405,318.728 255.219,323.852 249.332,323.718 C243.381,323.582 238.193,318.333 238.241,312.497 C238.291,306.446 243.257,301.712 249.509,301.755" fill="#FEFEFD"/>
    <path d="M222.06,298.023 C222.073,304.278 217.265,308.979 210.921,308.914 C204.893,308.852 200.147,304.161 200.064,298.182 C199.977,291.931 204.796,286.959 210.976,286.925 C217.159,286.891 222.047,291.785 222.06,298.023" fill="#FEFEFD"/>
    <path d="M357.88,260.254 C357.761,266.475 352.977,271.11 346.713,271.075 C340.474,271.039 335.806,266.241 335.903,259.963 C335.998,253.788 340.9,249.008 347.059,249.085 C353.241,249.162 357.999,254.072 357.88,260.254" fill="#FEFDFD"/>
    <path d="M250.849,195.926 C244.744,195.872 239.895,190.907 239.961,184.78 C240.029,178.539 244.822,173.857 251.067,173.931 C257.185,174.003 262.116,178.997 262.044,185.047 C261.971,191.179 257.029,195.982 250.849,195.926" fill="#FEFEFD"/>
    <path d="M266.761,163.932 C260.553,163.861 255.825,159.006 255.918,152.795 C256.01,146.649 260.949,141.851 267.095,141.937 C273.248,142.024 278.099,146.997 277.984,153.101 C277.868,159.261 272.956,164.002 266.761,163.932" fill="#FEFEFD"/>
    <path d="M209.062,157.573 C209.164,151.316 214.041,146.746 220.415,146.934 C226.443,147.112 231.06,151.868 231.057,157.894 C231.054,164.084 226.036,169.044 219.9,168.921 C213.685,168.796 208.96,163.849 209.062,157.573" fill="#FEFEFD"/>
    <path d="M324.489,108.94 C318.258,108.966 313.262,104.188 313.224,98.167 C313.186,92.207 318.23,87.076 324.235,86.963 C330.322,86.849 335.205,91.689 335.28,97.909 C335.356,104.298 330.842,108.913 324.489,108.94" fill="#FEFDFD"/>
    <path d="M194.224,139.841 C194.18,146.169 189.317,150.956 183.126,150.765 C177.18,150.582 172.317,145.708 172.242,139.855 C172.164,133.73 177.128,128.778 183.344,128.781 C189.733,128.784 194.268,133.394 194.224,139.841" fill="#FEFDFD"/>
    <path d="M164.951,276.595 C165.001,270.418 169.992,265.634 176.24,265.775 C182.192,265.909 187.003,270.745 187.056,276.646 C187.111,282.8 182.142,287.774 175.96,287.753 C169.75,287.731 164.901,282.817 164.951,276.595" fill="#FEFEFD"/>
    <path d="M331.508,291.447 C331.497,297.55 326.454,302.635 320.374,302.674 C314.547,302.711 309.147,297.189 309.286,291.337 C309.43,285.292 314.66,280.342 320.763,280.475 C326.676,280.603 331.52,285.549 331.508,291.447" fill="#FEFEFD"/>
    <path d="M134.92,248.543 C135.032,242.299 139.973,237.698 146.324,237.923 C152.321,238.136 156.927,242.941 156.904,248.961 C156.881,255.116 151.864,260.021 145.699,259.915 C139.562,259.81 134.808,254.794 134.92,248.543" fill="#FEFEFD"/>
    <path d="M143.79,132.496 C150.111,132.593 154.709,137.419 154.499,143.737 C154.299,149.778 149.605,154.326 143.538,154.356 C137.281,154.387 132.555,149.579 132.631,143.261 C132.708,136.837 137.312,132.396 143.79,132.496" fill="#FEFEFE"/>
    <path d="M328.659,195.679 C327.815,194.15 328.394,193.269 328.854,192.445 C329.761,190.82 329.908,188.474 332.372,188.247 C332.777,188.21 333.617,189.022 333.652,189.487 C333.815,191.651 332.446,193.1 330.916,194.362 C330.307,194.864 329.54,195.175 328.659,195.679" fill="#A76E3A"/>
    <path d="M250.141,234.33 C249.728,236.921 250.163,240.605 246.666,240.413 C243.019,240.214 241.871,236.809 242.003,233.363 C242.105,230.701 241.481,226.685 245.168,226.854 C248.908,227.026 249.824,230.939 250.141,234.33" fill="#9F6F37"/>
  </g>
</svg>
